<?xml version="1.0" encoding="utf-8"?>
<!-- Generator: Adobe Illustrator 19.0.0, SVG Export Plug-In . SVG Version: 6.00 Build 0)  -->
<svg version="1.1" xmlns="http://www.w3.org/2000/svg" xmlns:xlink="http://www.w3.org/1999/xlink" x="0px" y="0px"
	 viewBox="0 0 557.3 106.8" style="enable-background:new 0 0 557.3 106.8;" xml:space="preserve">
<style type="text/css">
	.st0{fill:#FFFFFF;}
	.st1{fill:none;stroke:url(#XMLID_98_);stroke-miterlimit:10;}
	.st2{fill:none;stroke:url(#XMLID_99_);stroke-miterlimit:10;}
	.st3{fill:none;stroke:url(#XMLID_100_);stroke-miterlimit:10;}
	.st4{fill:url(#XMLID_101_);stroke:url(#XMLID_102_);stroke-width:4;stroke-linecap:round;stroke-miterlimit:10;}
	.st5{fill:url(#XMLID_103_);stroke:#000000;stroke-miterlimit:10;}
	.st6{fill:url(#XMLID_104_);stroke:url(#XMLID_105_);stroke-width:4;stroke-linecap:round;stroke-miterlimit:10;}
	.st7{fill:url(#XMLID_106_);stroke:#000000;stroke-miterlimit:10;}
	.st8{fill:url(#XMLID_107_);stroke:url(#XMLID_108_);stroke-width:4;stroke-linecap:round;stroke-miterlimit:10;}
	.st9{fill:url(#XMLID_109_);stroke:#000000;stroke-miterlimit:10;}
	.st10{fill:url(#XMLID_110_);stroke:#E11075;stroke-width:4;stroke-linecap:round;stroke-miterlimit:10;}
	.st11{fill:url(#XMLID_111_);stroke:#E11075;stroke-width:4;stroke-linecap:round;stroke-miterlimit:10;}
	.st12{fill:url(#XMLID_112_);stroke:#E11075;stroke-width:4;stroke-linecap:round;stroke-miterlimit:10;}
	.st13{fill:url(#XMLID_113_);stroke:#E11075;stroke-width:4;stroke-linecap:round;stroke-miterlimit:10;}
	.st14{fill:url(#XMLID_114_);stroke:#E11075;stroke-width:4;stroke-linecap:round;stroke-miterlimit:10;}
	.st15{fill:url(#XMLID_115_);stroke:#E11075;stroke-width:4;stroke-linecap:round;stroke-miterlimit:10;}
	.st16{fill:url(#XMLID_116_);stroke:#E11075;stroke-width:4;stroke-linecap:round;stroke-miterlimit:10;}
	.st17{fill:url(#XMLID_117_);stroke:#E11075;stroke-width:4;stroke-linecap:round;stroke-miterlimit:10;}
	.st18{fill:url(#XMLID_118_);stroke:#E11075;stroke-width:4;stroke-linecap:round;stroke-miterlimit:10;}
</style>
<g id="Layer_2">
</g>
<g id="Layer_1">
	<g id="XMLID_67_">
		<path id="XMLID_68_" class="st0" d="M41.3,71.4h-3.5v-2c-1.4,1.1-2.8,1.7-4.3,1.7c-3,0.2-6.4,0.3-10.1,0.3h-0.1
			c-4.1,0-7.5-0.1-10.2-0.3c-1.9-0.1-3.7-0.9-5.2-2.4s-2.3-3.2-2.4-5.2c-0.1-1.9-0.1-4.2-0.1-6.9v-0.3c0-4,0-6.1,0.1-6.6
			c0.2-2.2,1-4.1,2.3-5.6c1.4-1.7,3.2-2.6,5.4-2.7c2.8-0.2,6.1-0.3,10.1-0.3h0.1c3.7,0,7.1,0.1,10.2,0.3c1.5,0.1,3,0.7,4.3,1.8V30.6
			h3.5V71.4z M37.8,50.3c0-3.1-2.4-5.8-5.5-5.8H14.5c-3.1,0-5.5,2.7-5.5,5.8v11.8c0,3.1,2.4,5.7,5.5,5.7l8.9,0.1
			c-0.5,0,2.4,0,8.9-0.1c3.1,0,5.5-2.6,5.5-5.7V50.3z"/>
		<path id="XMLID_71_" class="st0" d="M82.2,56.2V58H49.9v4.2c0,3.1,2.4,5.7,5.5,5.7l8.9,0.1c-0.6,0,2.4,0,8.9-0.1
			c3.1,0,5.5-2.6,5.5-5.7v-0.1h3.4c0,0.1,0,0.6-0.1,1.5c-0.1,1.9-0.9,3.6-2.4,5.1s-3.2,2.3-5.1,2.4c-2.7,0.2-6,0.3-10.1,0.3h-0.1
			c-4.1,0-7.5-0.1-10.2-0.3c-1.9-0.1-3.7-0.9-5.2-2.4s-2.3-3.2-2.4-5.2c-0.1-1.9-0.1-4.2-0.1-6.8v-0.4c0-4,0-6.1,0.1-6.6
			c0.2-2.2,1-4.1,2.3-5.6c1.4-1.7,3.2-2.6,5.4-2.7c2.8-0.2,6.1-0.3,10-0.3h0.1c4.1,0,7.5,0.1,10.2,0.3c1.9,0.1,3.7,1,5.2,2.5
			c1.5,1.5,2.3,3.2,2.4,5.2C82.2,51.1,82.3,53.4,82.2,56.2L82.2,56.2z M78.8,54.5v-4.2c0-3.1-2.4-5.7-5.5-5.7l-8.9-0.1
			c-0.9,0-3.9,0-8.9,0.1c-3.1,0-5.5,2.6-5.5,5.7v4.2H78.8z"/>
		<path id="XMLID_74_" class="st0" d="M105.3,71.2h-4L86.4,41.6h3.8l13.1,25.9l13.1-25.9h3.9L105.3,71.2z"/>
		<path id="XMLID_76_" class="st0" d="M124.9,37v-6.3h3.5V37H124.9z M124.9,71.2V41.6h3.5v29.6H124.9z"/>
		<path id="XMLID_79_" class="st0" d="M169.9,62.1c0,0.1,0,0.6-0.1,1.5c-0.1,1.9-0.9,3.6-2.4,5.1c-1.5,1.5-3.2,2.3-5.1,2.4
			c-2.6,0.2-6,0.3-10.1,0.3h-0.1c-4.1,0-7.5-0.1-10.2-0.3c-1.9-0.1-3.7-0.9-5.2-2.4s-2.3-3.2-2.4-5.2c-0.1-1.9-0.1-4.2-0.1-6.9v-0.3
			c0-4,0-6.1,0.1-6.6c0.2-2.2,1-4.1,2.3-5.6c1.4-1.7,3.2-2.6,5.4-2.7c2.8-0.2,6.1-0.3,9.9-0.3h0.2c4.2,0,7.6,0.1,10.2,0.3
			c1.9,0.1,3.7,1,5.2,2.5c1.6,1.5,2.4,3.2,2.4,5.1v0.4h-3.4c-0.4-2.7-2.8-4.8-5.5-4.8l-8.9-0.1c-0.9,0-3.9,0-8.9,0.1
			c-3.1,0-5.6,2.6-5.6,5.7v11.8c0,3.1,2.5,5.7,5.6,5.7l8.9,0.1c-0.6,0,2.4,0,8.9-0.1c3.1,0,5.5-2.6,5.5-5.7v-0.1H169.9z"/>
		<path id="XMLID_81_" class="st0" d="M210.8,56.2V58h-32.3v4.2c0,3.1,2.4,5.7,5.5,5.7l8.9,0.1c-0.6,0,2.4,0,8.9-0.1
			c3.1,0,5.5-2.6,5.5-5.7v-0.1h3.4c0,0.1,0,0.6-0.1,1.5c-0.1,1.9-0.9,3.6-2.4,5.1s-3.2,2.3-5.1,2.4c-2.7,0.2-6,0.3-10.1,0.3H193
			c-4.1,0-7.5-0.1-10.2-0.3c-1.9-0.1-3.7-0.9-5.2-2.4s-2.3-3.2-2.4-5.2c-0.1-1.9-0.1-4.2-0.1-6.8v-0.4c0-4,0-6.1,0.1-6.6
			c0.2-2.2,1-4.1,2.3-5.6c1.4-1.7,3.2-2.6,5.4-2.7c2.8-0.2,6.1-0.3,10-0.3h0.1c4.1,0,7.5,0.1,10.2,0.3c1.9,0.1,3.7,1,5.2,2.5
			c1.5,1.5,2.3,3.2,2.4,5.2C210.8,51.1,210.9,53.4,210.8,56.2L210.8,56.2z M207.4,54.5v-4.2c0-3.1-2.4-5.7-5.5-5.7l-8.9-0.1
			c-0.9,0-3.9,0-8.9,0.1c-3.1,0-5.5,2.6-5.5,5.7v4.2H207.4z"/>
		<path id="XMLID_84_" class="st0" d="M411.6,71.1h-3.4V50.3c0-3.1-2.5-5.7-5.6-5.7l-8.9-0.1h-1.6c-2.5,0.1-3.8,0.1-4,0.1
			c-3,0.4-5,2.7-5,5.6v20.8h-3.8V50.3c0-3.1-2.4-5.7-5.5-5.7l-8.9-0.1h-1.6c-2.4,0.1-3.7,0.1-3.8,0.1c-2.9,0.3-5.1,2.4-5.1,5.3v21.1
			h-3.5V41.6h3.5v1.6c1.4-1.1,2.8-1.7,4.3-1.8c3-0.2,5-0.3,6-0.3h0.2c5.5,0,8.6,0,8.9,0.1c3.4,0.4,5.9,1.7,7.4,4
			c1.3-1.9,3.1-3.1,5.5-3.6c1.2-0.3,3.5-0.4,6.8-0.4h0.2c4.1,0,7.5,0.1,10.2,0.3c1.9,0.1,3.7,1,5.2,2.5c1.5,1.5,2.4,3.2,2.4,5.1
			c0.1,1.9,0.1,4.3,0.1,7.3L411.6,71.1z"/>
		<path id="XMLID_86_" class="st0" d="M453.1,69.6c0,0.4,0,0.9-0.1,1.5h-3.4v-1.8c-1.6,1.2-3.9,1.9-6.8,2.1c0.8-0.1-1.7-0.1-7.3-0.1
			h-7.9c-2.7,0-5-0.9-6.9-2.6c-1.9-1.7-2.8-3.9-2.8-6.6c0-2.4,0.9-4.5,2.7-6.3s4-2.7,6.4-2.7c2.2-0.1,5-0.1,8.4-0.1h0.1
			c5.8,0,10.6,0,14.3,0.1v-2.8c0-3.1-2.4-5.8-5.5-5.8h-16.2c-2.7,0-5,2.2-5.5,4.9H419l0.1-0.4c0.1-1.9,0.9-3.6,2.4-5.1
			c1.5-1.5,3.2-2.4,5.2-2.5c2.7-0.2,5.5-0.3,8.5-0.3h0.1c4,0,7.4,0.1,10.1,0.3c1.9,0.1,3.7,1,5.3,2.5c1.7,1.5,2.4,3.2,2.4,5.1V69.6z
			 M449.6,56.4h-9.4c-0.8,0-5.1,0-13,0.1c-3.5,0-6,2.2-6,5.7c0,1.7,0.6,3,1.7,4.1c1.2,1.1,2.7,1.6,4.4,1.7c1.8,0.1,4.5,0.1,8.1,0.1
			h6.6c0.4,0.1,0.4,0.1,0.1,0.1c5-0.2,7.6-2.4,7.6-6.4V56.4z"/>
		<path id="XMLID_89_" class="st0" d="M476.5,44.9h-8.6v26.4h-3.5V44.9h-4.8v-3.5h4.8l0.1-10.7h3.4v10.7h8.6V44.9z"/>
		<path id="XMLID_91_" class="st0" d="M492.3,44.4c-0.5,0-1.1,0.1-1.7,0.4c-2.2,1-3.4,2.7-3.5,5c-0.1,1.3-0.1,2.4,0,3.5
			c0,0.6,0,1,0.1,1.2v16.8h-3.5l0.1-29.6h3.4v1.2c1.5-1.2,3-1.7,4.4-1.7h3.7v3.3H492.3z"/>
		<path id="XMLID_93_" class="st0" d="M502.9,37v-6.3h3.5V37H502.9z M502.9,71.2V41.6h3.5v29.6H502.9z"/>
		<path id="XMLID_96_" class="st0" d="M543.2,71.1l-13-13l-12.9,13h-4.9l15.3-15.4l-14.1-14.1h4.9l11.7,11.7l11.7-11.7h4.9
			l-14.1,14.1l15.3,15.4H543.2z"/>
	</g>
	<linearGradient id="XMLID_98_" gradientUnits="userSpaceOnUse" x1="275.6815" y1="63.1042" x2="329.4091" y2="63.1042">
		<stop  offset="0.1173" style="stop-color:#FFFFFF;stop-opacity:0"/>
		<stop  offset="0.9493" style="stop-color:#FFFFFF;stop-opacity:0.9426"/>
		<stop  offset="1" style="stop-color:#FFFFFF"/>
	</linearGradient>
	<line id="XMLID_206_" class="st1" x1="275.8" y1="56.4" x2="329.3" y2="69.8"/>
	<linearGradient id="XMLID_99_" gradientUnits="userSpaceOnUse" x1="276.0221" y1="67.78" x2="228.5158" y2="67.78">
		<stop  offset="0.1173" style="stop-color:#FFFFFF;stop-opacity:0"/>
		<stop  offset="0.9493" style="stop-color:#FFFFFF;stop-opacity:0.9426"/>
		<stop  offset="1" style="stop-color:#FFFFFF"/>
	</linearGradient>
	<line id="XMLID_205_" class="st2" x1="275.8" y1="56.4" x2="228.7" y2="79.2"/>
	<linearGradient id="XMLID_100_" gradientUnits="userSpaceOnUse" x1="276.8271" y1="56.3805" x2="276.8271" y2="4.6665">
		<stop  offset="0.1173" style="stop-color:#FFFFFF;stop-opacity:0"/>
		<stop  offset="0.9493" style="stop-color:#FFFFFF;stop-opacity:0.9426"/>
		<stop  offset="1" style="stop-color:#FFFFFF"/>
	</linearGradient>
	<line id="XMLID_204_" class="st3" x1="275.8" y1="56.4" x2="277.9" y2="4.7"/>
	<linearGradient id="XMLID_101_" gradientUnits="userSpaceOnUse" x1="329.2869" y1="69.8477" x2="329.2869" y2="69.8477">
		<stop  offset="0" style="stop-color:#FFF33B"/>
		<stop  offset="5.948725e-002" style="stop-color:#FFE029"/>
		<stop  offset="0.1303" style="stop-color:#FFD218"/>
		<stop  offset="0.2032" style="stop-color:#FEC90F"/>
		<stop  offset="0.2809" style="stop-color:#FDC70C"/>
		<stop  offset="0.6685" style="stop-color:#F3903F"/>
		<stop  offset="0.8876" style="stop-color:#ED683C"/>
		<stop  offset="1" style="stop-color:#E93E3A"/>
	</linearGradient>
	<linearGradient id="XMLID_102_" gradientUnits="userSpaceOnUse" x1="329.2869" y1="69.8477" x2="329.2869" y2="69.8477">
		<stop  offset="0" style="stop-color:#FFFFFF;stop-opacity:0"/>
		<stop  offset="0.1702" style="stop-color:#C6C6C6;stop-opacity:8.508620e-002"/>
		<stop  offset="0.3969" style="stop-color:#808080;stop-opacity:0.1984"/>
		<stop  offset="0.6015" style="stop-color:#494949;stop-opacity:0.3008"/>
		<stop  offset="0.7765" style="stop-color:#212121;stop-opacity:0.3883"/>
		<stop  offset="0.9151" style="stop-color:#090909;stop-opacity:0.4576"/>
		<stop  offset="1" style="stop-color:#000000;stop-opacity:0.5"/>
	</linearGradient>
	<path id="XMLID_203_" class="st4" d="M329.3,69.8"/>
	<linearGradient id="XMLID_103_" gradientUnits="userSpaceOnUse" x1="275.8038" y1="56.3607" x2="275.8038" y2="56.3607">
		<stop  offset="0" style="stop-color:#FFF33B"/>
		<stop  offset="5.948725e-002" style="stop-color:#FFE029"/>
		<stop  offset="0.1303" style="stop-color:#FFD218"/>
		<stop  offset="0.2032" style="stop-color:#FEC90F"/>
		<stop  offset="0.2809" style="stop-color:#FDC70C"/>
		<stop  offset="0.6685" style="stop-color:#F3903F"/>
		<stop  offset="0.8876" style="stop-color:#ED683C"/>
		<stop  offset="1" style="stop-color:#E93E3A"/>
	</linearGradient>
	<path id="XMLID_202_" class="st5" d="M275.8,56.4"/>
	<linearGradient id="XMLID_104_" gradientUnits="userSpaceOnUse" x1="228.7341" y1="79.1993" x2="228.7341" y2="79.1993">
		<stop  offset="0" style="stop-color:#FFF33B"/>
		<stop  offset="5.948725e-002" style="stop-color:#FFE029"/>
		<stop  offset="0.1303" style="stop-color:#FFD218"/>
		<stop  offset="0.2032" style="stop-color:#FEC90F"/>
		<stop  offset="0.2809" style="stop-color:#FDC70C"/>
		<stop  offset="0.6685" style="stop-color:#F3903F"/>
		<stop  offset="0.8876" style="stop-color:#ED683C"/>
		<stop  offset="1" style="stop-color:#E93E3A"/>
	</linearGradient>
	<linearGradient id="XMLID_105_" gradientUnits="userSpaceOnUse" x1="228.7341" y1="79.1993" x2="228.7341" y2="79.1993">
		<stop  offset="0" style="stop-color:#FFFFFF;stop-opacity:0"/>
		<stop  offset="0.1702" style="stop-color:#C6C6C6;stop-opacity:8.508620e-002"/>
		<stop  offset="0.3969" style="stop-color:#808080;stop-opacity:0.1984"/>
		<stop  offset="0.6015" style="stop-color:#494949;stop-opacity:0.3008"/>
		<stop  offset="0.7765" style="stop-color:#212121;stop-opacity:0.3883"/>
		<stop  offset="0.9151" style="stop-color:#090909;stop-opacity:0.4576"/>
		<stop  offset="1" style="stop-color:#000000;stop-opacity:0.5"/>
	</linearGradient>
	<path id="XMLID_201_" class="st6" d="M228.7,79.2"/>
	<linearGradient id="XMLID_106_" gradientUnits="userSpaceOnUse" x1="275.8038" y1="56.3607" x2="275.8038" y2="56.3607">
		<stop  offset="0" style="stop-color:#FFF33B"/>
		<stop  offset="5.948725e-002" style="stop-color:#FFE029"/>
		<stop  offset="0.1303" style="stop-color:#FFD218"/>
		<stop  offset="0.2032" style="stop-color:#FEC90F"/>
		<stop  offset="0.2809" style="stop-color:#FDC70C"/>
		<stop  offset="0.6685" style="stop-color:#F3903F"/>
		<stop  offset="0.8876" style="stop-color:#ED683C"/>
		<stop  offset="1" style="stop-color:#E93E3A"/>
	</linearGradient>
	<path id="XMLID_200_" class="st7" d="M275.8,56.4"/>
	<linearGradient id="XMLID_107_" gradientUnits="userSpaceOnUse" x1="277.8503" y1="4.6862" x2="277.8503" y2="4.6862">
		<stop  offset="0" style="stop-color:#FFF33B"/>
		<stop  offset="5.948725e-002" style="stop-color:#FFE029"/>
		<stop  offset="0.1303" style="stop-color:#FFD218"/>
		<stop  offset="0.2032" style="stop-color:#FEC90F"/>
		<stop  offset="0.2809" style="stop-color:#FDC70C"/>
		<stop  offset="0.6685" style="stop-color:#F3903F"/>
		<stop  offset="0.8876" style="stop-color:#ED683C"/>
		<stop  offset="1" style="stop-color:#E93E3A"/>
	</linearGradient>
	<linearGradient id="XMLID_108_" gradientUnits="userSpaceOnUse" x1="277.8503" y1="4.6862" x2="277.8503" y2="4.6862">
		<stop  offset="0" style="stop-color:#FFFFFF;stop-opacity:0"/>
		<stop  offset="0.1702" style="stop-color:#C6C6C6;stop-opacity:8.508620e-002"/>
		<stop  offset="0.3969" style="stop-color:#808080;stop-opacity:0.1984"/>
		<stop  offset="0.6015" style="stop-color:#494949;stop-opacity:0.3008"/>
		<stop  offset="0.7765" style="stop-color:#212121;stop-opacity:0.3883"/>
		<stop  offset="0.9151" style="stop-color:#090909;stop-opacity:0.4576"/>
		<stop  offset="1" style="stop-color:#000000;stop-opacity:0.5"/>
	</linearGradient>
	<path id="XMLID_199_" class="st8" d="M277.9,4.7"/>
	<linearGradient id="XMLID_109_" gradientUnits="userSpaceOnUse" x1="275.8038" y1="56.3607" x2="275.8038" y2="56.3607">
		<stop  offset="0" style="stop-color:#FFF33B"/>
		<stop  offset="5.948725e-002" style="stop-color:#FFE029"/>
		<stop  offset="0.1303" style="stop-color:#FFD218"/>
		<stop  offset="0.2032" style="stop-color:#FEC90F"/>
		<stop  offset="0.2809" style="stop-color:#FDC70C"/>
		<stop  offset="0.6685" style="stop-color:#F3903F"/>
		<stop  offset="0.8876" style="stop-color:#ED683C"/>
		<stop  offset="1" style="stop-color:#E93E3A"/>
	</linearGradient>
	<path id="XMLID_198_" class="st9" d="M275.8,56.4"/>
	<linearGradient id="XMLID_110_" gradientUnits="userSpaceOnUse" x1="224.641" y1="46.2916" x2="228.7341" y2="46.2916">
		<stop  offset="0" style="stop-color:#FFF33B"/>
		<stop  offset="5.948725e-002" style="stop-color:#FFE029"/>
		<stop  offset="0.1303" style="stop-color:#FFD218"/>
		<stop  offset="0.2032" style="stop-color:#FEC90F"/>
		<stop  offset="0.2809" style="stop-color:#FDC70C"/>
		<stop  offset="0.6685" style="stop-color:#F3903F"/>
		<stop  offset="0.8876" style="stop-color:#ED683C"/>
		<stop  offset="1" style="stop-color:#E93E3A"/>
	</linearGradient>
	<line id="XMLID_197_" class="st10" x1="224.6" y1="13.4" x2="228.7" y2="79.2"/>
	<linearGradient id="XMLID_111_" gradientUnits="userSpaceOnUse" x1="228.7341" y1="90.6754" x2="292.1759" y2="90.6754">
		<stop  offset="0" style="stop-color:#FFF33B"/>
		<stop  offset="5.948725e-002" style="stop-color:#FFE029"/>
		<stop  offset="0.1303" style="stop-color:#FFD218"/>
		<stop  offset="0.2032" style="stop-color:#FEC90F"/>
		<stop  offset="0.2809" style="stop-color:#FDC70C"/>
		<stop  offset="0.6685" style="stop-color:#F3903F"/>
		<stop  offset="0.8876" style="stop-color:#ED683C"/>
		<stop  offset="1" style="stop-color:#E93E3A"/>
	</linearGradient>
	<line id="XMLID_196_" class="st11" x1="228.7" y1="79.2" x2="292.2" y2="102.2"/>
	<linearGradient id="XMLID_112_" gradientUnits="userSpaceOnUse" x1="292.1759" y1="64.0351" x2="294.734" y2="64.0351">
		<stop  offset="0" style="stop-color:#FFF33B"/>
		<stop  offset="5.948725e-002" style="stop-color:#FFE029"/>
		<stop  offset="0.1303" style="stop-color:#FFD218"/>
		<stop  offset="0.2032" style="stop-color:#FEC90F"/>
		<stop  offset="0.2809" style="stop-color:#FDC70C"/>
		<stop  offset="0.6685" style="stop-color:#F3903F"/>
		<stop  offset="0.8876" style="stop-color:#ED683C"/>
		<stop  offset="1" style="stop-color:#E93E3A"/>
	</linearGradient>
	<line id="XMLID_195_" class="st12" x1="292.2" y1="102.2" x2="294.7" y2="25.9"/>
	<linearGradient id="XMLID_113_" gradientUnits="userSpaceOnUse" x1="224.641" y1="19.6514" x2="294.734" y2="19.6514">
		<stop  offset="0" style="stop-color:#FFF33B"/>
		<stop  offset="5.948725e-002" style="stop-color:#FFE029"/>
		<stop  offset="0.1303" style="stop-color:#FFD218"/>
		<stop  offset="0.2032" style="stop-color:#FEC90F"/>
		<stop  offset="0.2809" style="stop-color:#FDC70C"/>
		<stop  offset="0.6685" style="stop-color:#F3903F"/>
		<stop  offset="0.8876" style="stop-color:#ED683C"/>
		<stop  offset="1" style="stop-color:#E93E3A"/>
	</linearGradient>
	<line id="XMLID_194_" class="st13" x1="294.7" y1="25.9" x2="224.6" y2="13.4"/>
	<linearGradient id="XMLID_114_" gradientUnits="userSpaceOnUse" x1="292.1759" y1="85.9995" x2="329.2869" y2="85.9995">
		<stop  offset="0" style="stop-color:#FFF33B"/>
		<stop  offset="5.948725e-002" style="stop-color:#FFE029"/>
		<stop  offset="0.1303" style="stop-color:#FFD218"/>
		<stop  offset="0.2032" style="stop-color:#FEC90F"/>
		<stop  offset="0.2809" style="stop-color:#FDC70C"/>
		<stop  offset="0.6685" style="stop-color:#F3903F"/>
		<stop  offset="0.8876" style="stop-color:#ED683C"/>
		<stop  offset="1" style="stop-color:#E93E3A"/>
	</linearGradient>
	<line id="XMLID_193_" class="st14" x1="292.2" y1="102.2" x2="329.3" y2="69.8"/>
	<linearGradient id="XMLID_115_" gradientUnits="userSpaceOnUse" x1="329.2869" y1="40.5926" x2="334.641" y2="40.5926">
		<stop  offset="0" style="stop-color:#FFF33B"/>
		<stop  offset="5.948725e-002" style="stop-color:#FFE029"/>
		<stop  offset="0.1303" style="stop-color:#FFD218"/>
		<stop  offset="0.2032" style="stop-color:#FEC90F"/>
		<stop  offset="0.2809" style="stop-color:#FDC70C"/>
		<stop  offset="0.6685" style="stop-color:#F3903F"/>
		<stop  offset="0.8876" style="stop-color:#ED683C"/>
		<stop  offset="1" style="stop-color:#E93E3A"/>
	</linearGradient>
	<line id="XMLID_192_" class="st15" x1="329.3" y1="69.8" x2="334.6" y2="11.3"/>
	<linearGradient id="XMLID_116_" gradientUnits="userSpaceOnUse" x1="294.734" y1="18.6281" x2="334.641" y2="18.6281">
		<stop  offset="0" style="stop-color:#FFF33B"/>
		<stop  offset="5.948725e-002" style="stop-color:#FFE029"/>
		<stop  offset="0.1303" style="stop-color:#FFD218"/>
		<stop  offset="0.2032" style="stop-color:#FEC90F"/>
		<stop  offset="0.2809" style="stop-color:#FDC70C"/>
		<stop  offset="0.6685" style="stop-color:#F3903F"/>
		<stop  offset="0.8876" style="stop-color:#ED683C"/>
		<stop  offset="1" style="stop-color:#E93E3A"/>
	</linearGradient>
	<line id="XMLID_191_" class="st16" x1="334.6" y1="11.3" x2="294.7" y2="25.9"/>
	<linearGradient id="XMLID_117_" gradientUnits="userSpaceOnUse" x1="277.8503" y1="8.0118" x2="334.641" y2="8.0118">
		<stop  offset="0" style="stop-color:#FFF33B"/>
		<stop  offset="5.948725e-002" style="stop-color:#FFE029"/>
		<stop  offset="0.1303" style="stop-color:#FFD218"/>
		<stop  offset="0.2032" style="stop-color:#FEC90F"/>
		<stop  offset="0.2809" style="stop-color:#FDC70C"/>
		<stop  offset="0.6685" style="stop-color:#F3903F"/>
		<stop  offset="0.8876" style="stop-color:#ED683C"/>
		<stop  offset="1" style="stop-color:#E93E3A"/>
	</linearGradient>
	<line id="XMLID_190_" class="st17" x1="334.6" y1="11.3" x2="277.9" y2="4.7"/>
	<linearGradient id="XMLID_118_" gradientUnits="userSpaceOnUse" x1="224.641" y1="9.0351" x2="277.8503" y2="9.0351">
		<stop  offset="0" style="stop-color:#FFF33B"/>
		<stop  offset="5.948725e-002" style="stop-color:#FFE029"/>
		<stop  offset="0.1303" style="stop-color:#FFD218"/>
		<stop  offset="0.2032" style="stop-color:#FEC90F"/>
		<stop  offset="0.2809" style="stop-color:#FDC70C"/>
		<stop  offset="0.6685" style="stop-color:#F3903F"/>
		<stop  offset="0.8876" style="stop-color:#ED683C"/>
		<stop  offset="1" style="stop-color:#E93E3A"/>
	</linearGradient>
	<line id="XMLID_189_" class="st18" x1="277.9" y1="4.7" x2="224.6" y2="13.4"/>
</g>
</svg>
